HIERARCHY
ROOT Hips
{
	OFFSET 0.000000 0.000000 0.000000
	CHANNELS 6 Xposition Yposition Zposition Zrotation Yrotation Xrotation 
	JOINT LHipJoint
	{
		OFFSET 0.000000 0.000000 0.000000
		CHANNELS 3 Zrotation Yrotation Xrotation
		JOINT LeftUpLeg
		{
			OFFSET 1.363060 -1.794630 0.839290
			CHANNELS 3 Zrotation Yrotation Xrotation
			JOINT LeftLeg
			{
				OFFSET 2.448110 -6.726130 0.000000
				CHANNELS 3 Zrotation Yrotation Xrotation
				JOINT LeftFoot
				{
					OFFSET 2.562200 -7.039590 0.000000
					CHANNELS 3 Zrotation Yrotation Xrotation
					JOINT LeftToeBase
					{
						OFFSET 0.157640 -0.433110 2.322550
						CHANNELS 3 Zrotation Yrotation Xrotation
						End Site
						{
							OFFSET 0.000000 0.000000 0.000000
						}
					}
				}
			}
		}
	}
	JOINT RHipJoint
	{
		OFFSET 0.000000 0.000000 0.000000
		CHANNELS 3 Zrotation Yrotation Xrotation
		JOINT RightUpLeg
		{
			OFFSET -1.305520 -1.794630 0.839290
			CHANNELS 3 Zrotation Yrotation Xrotation
			JOINT RightLeg
			{
				OFFSET -2.542530 -6.985550 0.000000
				CHANNELS 3 Zrotation Yrotation Xrotation
				JOINT RightFoot
				{
					OFFSET -2.568260 -7.056230 0.000000
					CHANNELS 3 Zrotation Yrotation Xrotation
					JOINT RightToeBase
					{
						OFFSET -0.164730 -0.452590 2.363150
						CHANNELS 3 Zrotation Yrotation Xrotation
						End Site
						{
							OFFSET 0.000000 0.000000 0.000000
						}
					}
				}
			}
		}
	}
	JOINT LowerBack
	{
		OFFSET 0.000000 0.000000 0.000000
		CHANNELS 3 Zrotation Yrotation Xrotation
		JOINT Spine
		{
			OFFSET 0.028270 2.035590 -0.193380
			CHANNELS 3 Zrotation Yrotation Xrotation
			JOINT Spine1
			{
				OFFSET 0.056720 2.048850 -0.042750
				CHANNELS 3 Zrotation Yrotation Xrotation
				JOINT Neck
				{
					OFFSET 0.000000 0.000000 0.000000
					CHANNELS 3 Zrotation Yrotation Xrotation
					JOINT Neck1
					{
						OFFSET -0.054170 1.746240 0.172020
						CHANNELS 3 Zrotation Yrotation Xrotation
						JOINT Head
						{
							OFFSET 0.104070 1.761360 -0.123970
							CHANNELS 3 Zrotation Yrotation Xrotation
							End Site
							{
								OFFSET 0.000000 0.000000 0.000000
							}
						}
					}
				}
				JOINT LeftShoulder
				{
					OFFSET 0.000000 0.000000 0.000000
					CHANNELS 3 Zrotation Yrotation Xrotation
					JOINT LeftArm
					{
						OFFSET 3.362410 1.200890 -0.311210
						CHANNELS 3 Zrotation Yrotation Xrotation
						JOINT LeftForeArm
						{
							OFFSET 4.983000 -0.000000 -0.000000
							CHANNELS 3 Zrotation Yrotation Xrotation
							JOINT LeftHand
							{
								OFFSET 3.483560 -0.000000 -0.000000
								CHANNELS 3 Zrotation Yrotation Xrotation
								JOINT LeftFingerBase
								{
									OFFSET 0.000000 0.000000 0.000000
									CHANNELS 3 Zrotation Yrotation Xrotation
									JOINT LeftHandIndex1
									{
										OFFSET 0.715260 -0.000000 -0.000000
										CHANNELS 3 Zrotation Yrotation Xrotation
										End Site
										{
											OFFSET 0.000000 0.000000 0.000000
										}
									}
								}
								JOINT LThumb
								{
									OFFSET 0.000000 0.000000 0.000000
									CHANNELS 3 Zrotation Yrotation Xrotation
									End Site
									{
										OFFSET 0.000000 0.000000 0.000000
									}
								}
							}
						}
					}
				}
				JOINT RightShoulder
				{
					OFFSET 0.000000 0.000000 0.000000
					CHANNELS 3 Zrotation Yrotation Xrotation
					JOINT RightArm
					{
						OFFSET -3.136600 1.374050 -0.404650
						CHANNELS 3 Zrotation Yrotation Xrotation
						JOINT RightForeArm
						{
							OFFSET -5.241900 -0.000000 -0.000000
							CHANNELS 3 Zrotation Yrotation Xrotation
							JOINT RightHand
							{
								OFFSET -3.444170 -0.000000 -0.000000
								CHANNELS 3 Zrotation Yrotation Xrotation
								JOINT RightFingerBase
								{
									OFFSET 0.000000 0.000000 0.000000
									CHANNELS 3 Zrotation Yrotation Xrotation
									JOINT RightHandIndex1
									{
										OFFSET -0.622530 -0.000000 -0.000000
										CHANNELS 3 Zrotation Yrotation Xrotation
										End Site
										{
											OFFSET 0.000000 0.000000 0.000000
										}
									}
								}
								JOINT RThumb
								{
									OFFSET 0.000000 0.000000 0.000000
									CHANNELS 3 Zrotation Yrotation Xrotation
									End Site
									{
										OFFSET 0.000000 0.000000 0.000000
									}
								}
							}
						}
					}
				}
			}
		}
	}
}
MOTION
Frames: 10
Frame Time: 0.008333
-4.520003 17.628415 -14.138682 4.389081 5.153938 -0.324627 -6.956637 -0.373766 3.793131 -14.060624 5.687981 -1.880711 0.565606 9.848498 27.305410 -4.019023 14.410147 -7.001778 2.990100 -10.679000 -31.204600 5.712600 2.555174 -0.968250 -0.042937 0.958212 -22.306359 -4.463352 -14.097425 40.218721 2.588626 -10.703609 -0.197519 -0.186600 -2.781800 7.672000 -7.841564 -5.324232 7.493021 1.107248 -7.406158 -3.486583 8.729795 -3.930324 -4.331349 -6.528347 -7.304415 1.932237 9.638300 -10.548664 5.981013 2.641800 -5.163500 3.418200 2.754158 5.047136 -0.652494 -93.755933 -0.279688 12.304325 16.737404 -34.656058 -6.321396 -0.241448 0.779511 3.783488 6.024024 -13.310868 -1.541700 -7.125000 0.000000 0.000000 -14.371900 16.106400 10.148700 -0.585636 -6.024884 -2.629785 35.288173 44.021504 3.147043 -153.176212 38.893543 -111.655177 1.666254 0.569434 -7.221204 -16.983747 -37.063993 11.523700 7.125000 0.000000 0.000000 21.189500 -67.394600 -11.626300 
-4.417969 17.625621 -14.269173 4.572546 5.258535 -0.082133 -7.014958 -0.453284 3.765115 -14.636285 6.006045 -2.473728 0.470947 9.726326 26.914886 -4.083159 14.594894 -7.324800 3.129300 -10.901500 -31.948300 5.696959 2.585307 -1.039538 -0.705268 1.120776 -22.751950 -4.435683 -13.990486 39.919319 2.656139 -10.937273 0.440801 -0.203700 -2.906000 8.017300 -8.110093 -5.380976 7.525412 1.055089 -7.507521 -3.454342 8.715250 -3.983942 -4.212360 -6.337787 -7.260782 1.912901 9.645852 -10.497310 5.788520 2.604800 -5.139200 3.309400 2.738185 5.050364 -0.673491 -93.576664 -0.203553 13.267938 17.779460 -35.723803 -6.815987 -0.235095 0.819278 2.969557 6.466784 -14.042415 -1.735800 -7.125000 0.000000 0.000000 -14.047300 15.328400 10.148400 -0.581476 -6.045982 -2.596194 34.979892 44.505891 2.857105 -153.135975 38.923799 -111.640401 1.658373 0.589319 -8.056554 -17.404393 -37.209379 11.829400 7.125000 0.000000 0.000000 20.849600 -67.638700 -11.548100 
-4.317695 17.618895 -14.399044 4.489265 5.347588 0.112444 -7.063548 -0.518896 3.735322 -14.909117 6.179184 -3.041724 0.396514 9.640433 26.646971 -4.055389 14.523477 -7.760997 3.069400 -10.806600 -31.630400 5.700435 2.615195 -1.096693 -1.063916 1.243128 -23.088883 -4.358910 -13.848615 39.453075 2.753974 -11.280592 1.139281 -0.221500 -3.029600 8.361100 -7.927409 -5.247024 7.560281 1.028983 -7.309139 -3.392961 8.622513 -3.892868 -4.129238 -6.711167 -7.400795 1.822837 9.963023 -10.657036 5.557611 2.812400 -5.227800 3.301500 2.733247 5.050341 -0.674546 -93.654959 -0.243430 14.528896 18.710782 -36.656543 -7.245801 -0.220842 0.875594 2.429986 7.184769 -15.384798 -2.093800 -7.125000 0.000000 0.000000 -13.528500 13.917900 10.170500 -0.580565 -6.007640 -2.588011 34.161358 44.531360 1.939653 -153.067439 38.972555 -111.605294 1.637723 0.597825 -8.585292 -17.379010 -37.076446 11.768000 7.125000 0.000000 0.000000 20.738400 -67.506800 -11.422600 
-4.219490 17.617136 -14.528810 4.406603 5.416997 0.277993 -7.103643 -0.581266 3.707527 -15.135379 6.446032 -3.629817 0.340439 9.570020 26.442686 -3.924282 14.169451 -8.074447 3.015400 -10.720000 -31.341300 5.707682 2.640398 -1.146091 -1.454990 1.492933 -23.304806 -4.259119 -13.688057 38.915251 2.807859 -11.494366 1.773738 -0.326100 -3.670500 10.151400 -7.876945 -5.225819 7.635897 0.997329 -7.276990 -3.339939 8.512828 -3.884306 -4.047208 -6.558018 -7.408111 1.914983 10.033432 -10.678398 5.365739 2.816300 -5.241700 3.189500 2.726172 5.052948 -0.681328 -93.553171 -0.249817 15.062107 19.416321 -37.336548 -7.598054 -0.212256 0.904455 2.232975 7.477558 -15.973065 -2.254400 -7.125000 0.000000 0.000000 -13.323900 13.294100 10.188300 -0.579670 -6.024693 -2.564070 34.048561 44.851301 1.707247 -153.022398 39.024370 -111.568589 1.636576 0.594040 -8.817965 -17.432904 -36.888840 11.750400 7.125000 0.000000 0.000000 20.437100 -67.343100 -11.175400 
-4.126046 17.630175 -14.655369 4.282963 5.474001 0.420041 -7.138456 -0.640914 3.677527 -15.248662 6.865777 -4.302268 0.319832 9.538340 26.372344 -3.652003 13.427242 -8.206900 2.968200 -10.643300 -31.086200 5.728089 2.661531 -1.189712 -1.828578 2.039396 -23.315379 -4.123920 -13.502103 38.273833 2.891772 -11.761735 2.066977 -0.697600 -5.338900 14.877700 -7.752398 -5.045211 7.715507 0.988545 -7.022252 -3.268506 8.470775 -3.767820 -3.944481 -6.644046 -7.634615 1.707823 10.067579 -10.958959 5.355727 2.827500 -5.377100 3.265700 2.732678 5.052963 -0.681207 -93.668498 -0.352333 15.821026 19.911606 -37.800772 -7.823048 -0.209299 0.906440 2.216019 7.303563 -15.501555 -2.142700 -7.125000 0.000000 0.000000 -13.454300 13.764900 10.156200 -0.572295 -5.997445 -2.564721 33.516808 44.775059 1.149682 -152.948788 39.084585 -111.528174 1.628532 0.590121 -8.905312 -17.585942 -36.781124 11.813600 7.125000 0.000000 0.000000 20.130400 -67.283000 -10.974800 
-4.040983 17.646214 -14.778099 4.248139 5.530924 0.605500 -7.171527 -0.708947 3.638703 -15.403911 7.298910 -5.063078 0.319058 9.533821 26.381351 -3.306275 12.482640 -8.112964 2.909300 -10.546800 -30.766200 5.745705 2.682953 -1.226964 -2.221382 2.500723 -23.338702 -3.987812 -13.307389 37.610527 3.044458 -12.196790 2.076307 -1.323100 -7.284900 20.562200 -7.783533 -4.866084 7.734767 0.984725 -6.782151 -3.220574 8.531263 -3.651144 -3.863769 -7.008726 -7.833523 1.650865 10.364303 -11.205439 5.316451 3.016500 -5.501300 3.340700 2.732116 5.066074 -0.678315 -93.745416 -0.329347 16.558736 20.190738 -38.068647 -7.937317 -0.210881 0.894491 2.106327 6.961618 -14.740570 -1.950700 -7.125000 0.000000 0.000000 -13.707600 14.541200 10.126100 -0.574400 -5.962665 -2.559630 33.145324 44.692916 0.795319 -152.911058 39.119902 -111.502056 1.618755 0.592558 -9.056589 -17.452275 -36.696880 11.701300 7.125000 0.000000 0.000000 20.206000 -67.168400 -10.964800 
-3.966476 17.655010 -14.899794 4.609917 5.614654 0.844506 -7.199808 -0.800748 3.581406 -15.957150 7.722773 -5.878436 0.330057 9.557463 26.458975 -2.983656 11.603514 -7.799580 2.919200 -10.563100 -30.820200 5.735268 2.700819 -1.258632 -2.912995 2.686699 -23.447331 -3.887927 -13.117176 36.985059 3.250873 -12.802128 2.191912 -1.809500 -8.457500 24.112500 -8.495555 -4.978299 7.773763 0.929549 -6.998367 -3.212761 8.701390 -3.755016 -3.760374 -6.834896 -7.641196 1.959410 10.620690 -10.989515 5.227629 3.110100 -5.394500 3.207400 2.705452 5.108232 -0.691723 -93.385338 -0.158090 16.283823 20.193771 -38.081367 -7.966718 -0.213387 0.879629 1.895062 6.704693 -14.484138 -1.848400 -7.125000 0.000000 0.000000 -13.889700 14.820400 10.183500 -0.596200 -6.022337 -2.503355 34.060030 45.401458 1.640401 -152.970013 39.113479 -111.500328 1.634296 0.590210 -9.260417 -17.199497 -36.506031 11.497600 7.125000 0.000000 0.000000 20.255500 -66.917200 -10.877100 
-3.898592 17.664427 -15.018178 5.098992 5.663729 1.093470 -7.220831 -0.908180 3.502155 -16.687167 8.099700 -6.702768 0.353232 9.611975 26.615755 -2.761352 10.998323 -7.479165 2.947700 -10.609900 -30.975200 5.720385 2.720979 -1.288757 -3.683884 2.927531 -23.508017 -3.804849 -12.951635 36.470448 3.395904 -13.174108 1.968294 -2.097600 -9.066500 26.003500 -9.107191 -4.804047 7.744700 0.812966 -6.820547 -3.172367 8.733390 -3.665679 -3.643905 -7.084654 -7.796394 2.050503 10.984218 -11.201397 5.231763 3.315100 -5.499100 3.259300 2.675957 5.139866 -0.688510 -93.188899 -0.153011 16.385002 19.916426 -37.839086 -7.826190 -0.206751 0.870436 2.069044 6.568249 -14.654893 -1.829200 -7.125000 0.000000 0.000000 -13.976300 14.671400 10.297000 -0.625410 -6.009507 -2.497450 34.425637 45.289473 1.811687 -153.038121 39.062016 -111.540501 1.642904 0.582839 -9.399082 -17.437027 -36.322876 11.600500 7.125000 0.000000 0.000000 19.735200 -66.805000 -10.538200 
-3.834019 17.682123 -15.130249 5.246274 5.682380 1.275491 -7.237993 -0.998324 3.423605 -17.114179 8.251138 -7.422025 0.383894 9.687852 26.824730 -2.681076 10.771495 -7.263300 2.936600 -10.591700 -30.914800 5.732030 2.750301 -1.293241 -4.103838 3.312629 -23.455833 -3.696565 -12.818655 36.111111 3.328239 -12.792686 0.724800 -2.275100 -9.417000 27.108500 -9.342294 -4.655788 7.711361 0.727141 -6.641713 -3.143624 8.628009 -3.582107 -3.574729 -7.062263 -8.009392 2.098058 11.312533 -11.499210 5.551026 3.099300 -5.604300 3.091800 2.644763 5.177787 -0.691850 -92.923092 -0.044607 16.110224 19.414027 -37.380429 -7.585191 -0.202508 0.855756 2.535997 6.489878 -14.853837 -1.829200 -7.125000 0.000000 0.000000 -14.019200 14.498100 10.384300 -0.647677 -5.995382 -2.497357 35.014786 45.204815 2.145719 -153.157221 38.947013 -111.629082 1.657110 0.580234 -9.340543 -17.726876 -36.384337 11.806500 7.125000 0.000000 0.000000 19.430700 -66.938400 -10.429300 
-3.771516 17.702198 -15.240044 5.024318 5.756264 1.356945 -7.250425 -1.063217 3.354382 -17.158027 8.182231 -8.003375 0.423216 9.779734 27.080021 -2.652538 10.678867 -7.109466 2.864600 -10.472500 -30.520800 5.765098 2.779903 -1.267151 -4.055839 3.453110 -23.395603 -3.583138 -12.721898 35.867427 3.200597 -12.233809 -1.121151 -2.162600 -9.196900 26.413200 -9.143858 -4.521566 7.826702 0.697852 -6.459741 -3.151736 8.472677 -3.485487 -3.695503 -7.132346 -8.148733 2.100085 11.381094 -11.686248 5.802405 3.129100 -5.684600 3.221700 2.624991 5.194505 -0.691934 -92.721211 0.208292 15.608130 18.767787 -36.770809 -7.275700 -0.202872 0.836889 2.964248 6.409063 -14.959990 -1.818100 -7.125000 0.000000 0.000000 -14.065400 14.419600 10.445000 -0.654266 -5.972764 -2.503449 35.542404 45.121142 2.468403 -153.267481 38.831772 -111.710556 1.665158 0.582544 -9.093525 -17.607494 -36.533321 11.777100 7.125000 0.000000 0.000000 19.743700 -67.049500 -10.652600 
